# xmcd
#
# Track frame offsets:
#	187
#	13762
#	28365
#	42287
#	52325
#	65995
#	74860
#	86015
#	99660
#	112860
#	122282
#	132690
#	143610
#	155727
#	170195
#	182345
#
# Disc length: 2608 seconds
#
# Revision: 1
# Processed by: cddbd v1.5.1PL0 Copyright (c) Steve Scherf et al.
# Submitted via: CDex 1.50Beta5
#
DISCID=f60a2e10
DTITLE=Yvette Giraud - CHANSON best collection
DYEAR=1900
DGENRE=chanson
TTITLE0=愛の讃歌
TTITLE1=バラ色の人生
TTITLE2=ミラボー橋
TTITLE3=ポルトガルの洗濯女
TTITLE4=セレソ・ローサ
TTITLE5=パリ・カナイユ
TTITLE6=聞かせてよ愛の言葉を
TTITLE7=パリの空の下
TTITLE8=パダム・パダム
TTITLE9=パリの屋根の下
TTITLE10=恋心
TTITLE11=フル・フル
TTITLE12=街角
TTITLE13=ロマンス
TTITLE14=風船売り
TTITLE15=サクランボの実る頃
EXTD=
EXTT0=
EXTT1=
EXTT2=
EXTT3=
EXTT4=
EXTT5=
EXTT6=
EXTT7=
EXTT8=
EXTT9=
EXTT10=
EXTT11=
EXTT12=
EXTT13=
EXTT14=
EXTT15=
PLAYORDER=
